<svg width="150" height="140" viewBox="0 0 150 140" fill="none" xmlns="http://www.w3.org/2000/svg">
<g clip-path="url(#clip0_1_67)">
<path d="M0.00999819 99.8007C0.020632 99.8558 0.0374009 99.9094 0.0599908 99.9607C0.0699894 99.9907 0.0799879 100.031 0.0899865 100.061L11.4983 119.818L11.5283 119.848C11.5483 119.878 11.5683 119.908 11.5983 119.948C11.6369 119.99 11.6806 120.027 11.7283 120.058C11.7583 120.078 11.7783 120.108 11.8083 120.128C11.82 120.136 11.8342 120.139 11.8483 120.138C11.9615 120.201 12.0885 120.235 12.2182 120.238H57.3516L68.5199 139.575L68.5499 139.605C68.5699 139.635 68.5899 139.665 68.6199 139.705C68.6585 139.747 68.7022 139.784 68.7499 139.815C68.7799 139.835 68.7999 139.865 68.8299 139.885C68.8416 139.893 68.8558 139.896 68.8699 139.895C68.9831 139.958 69.1102 139.992 69.2398 139.995H137.68C137.813 139.993 137.943 139.958 138.06 139.895L138.15 139.835C138.235 139.778 138.309 139.707 138.37 139.625C138.38 139.605 138.41 139.595 138.42 139.575L149.828 119.818C149.838 119.798 149.838 119.788 149.848 119.768C149.866 119.736 149.879 119.703 149.888 119.668C149.898 119.628 149.908 119.598 149.918 119.558C149.926 119.522 149.93 119.485 149.928 119.448C149.928 119.428 149.938 119.418 149.938 119.398C149.938 119.378 149.928 119.368 149.928 119.348C149.928 119.308 149.918 119.278 149.918 119.238C149.918 119.198 149.898 119.168 149.888 119.128C149.876 119.094 149.863 119.061 149.848 119.028C149.838 119.008 149.838 118.998 149.828 118.978L127.261 79.8937L138.42 60.5565C138.43 60.5365 138.43 60.5265 138.44 60.5065C138.457 60.475 138.471 60.4414 138.48 60.4065C138.49 60.3665 138.5 60.3365 138.51 60.2965C138.518 60.2605 138.521 60.2235 138.52 60.1865C138.52 60.1665 138.53 60.1565 138.53 60.1365C138.53 60.1166 138.52 60.1066 138.52 60.0866C138.52 60.0466 138.51 60.0166 138.51 59.9766C138.51 59.9366 138.49 59.9066 138.48 59.8666C138.468 59.8326 138.455 59.7992 138.44 59.7666C138.43 59.7466 138.43 59.7366 138.42 59.7166L104.215 0.435308C104.195 0.405312 104.165 0.385315 104.145 0.35532C104.111 0.309945 104.074 0.266548 104.035 0.225339C103.994 0.192006 103.95 0.161919 103.905 0.135352C103.861 0.106117 103.814 0.0825943 103.765 0.0653622C103.706 0.0462327 103.646 0.0328384 103.585 0.0253681C103.555 0.0253681 103.525 0.00537109 103.485 0.00537109H80.6682C80.6482 0.00537109 80.6382 0.0153696 80.6182 0.0153696C80.5782 0.0153696 80.5482 0.0253681 80.5082 0.0253681L80.3882 0.0553637C80.3582 0.0653622 80.3182 0.0853594 80.2882 0.0953579C80.2582 0.105356 80.2582 0.105356 80.2382 0.115355C80.2268 0.127705 80.2133 0.137871 80.1982 0.145351C80.1659 0.1655 80.1357 0.188956 80.1082 0.21534C80.0791 0.239424 80.0523 0.266206 80.0283 0.295329C80.0083 0.325324 79.9783 0.35532 79.9583 0.385315C79.9459 0.396709 79.9358 0.410263 79.9283 0.425309L57.3616 39.5196H35.0449C35.0249 39.5196 35.0149 39.5296 34.9949 39.5296C34.9549 39.5296 34.9249 39.5396 34.8849 39.5396C34.8449 39.5396 34.8049 39.5596 34.7749 39.5696C34.7409 39.5812 34.7075 39.5945 34.6749 39.6096C34.6549 39.6196 34.6449 39.6196 34.6249 39.6296C34.6049 39.6396 34.6049 39.6496 34.5849 39.6596C34.5526 39.6797 34.5224 39.7032 34.4949 39.7295C34.4658 39.7536 34.439 39.7804 34.4149 39.8095C34.395 39.8395 34.365 39.8695 34.345 39.8995C34.3326 39.9109 34.3224 39.9245 34.315 39.9395L0.099985 99.2208C0.0854458 99.2526 0.0753525 99.2863 0.0699894 99.3208C0.0488005 99.3726 0.0320755 99.4261 0.0199967 99.4808C0.00412564 99.5325 -0.00264046 99.5867 -3.45404e-07 99.6408C-0.0016558 99.6943 0.00169158 99.7478 0.00999819 99.8007ZM102.995 1.70512L136.24 59.2867H115.383L82.1279 1.70512H102.995ZM114.403 98.8009H93.5363L115.373 60.9664H136.24L114.403 98.8009ZM80.6682 2.545L113.913 60.1265L92.0765 97.961L81.648 79.8837L92.8164 60.5465C92.8264 60.5265 92.8264 60.5165 92.8364 60.4965C92.854 60.465 92.8674 60.4314 92.8764 60.3965C92.8864 60.3565 92.8964 60.3265 92.9064 60.2865C92.9146 60.2505 92.918 60.2135 92.9164 60.1765C92.9164 60.1565 92.9264 60.1465 92.9264 60.1265C92.9264 60.1066 92.9164 60.0966 92.9164 60.0766C92.9164 60.0366 92.9064 60.0066 92.9064 59.9666C92.9064 59.9266 92.8864 59.8966 92.8764 59.8566C92.8648 59.8226 92.8514 59.7892 92.8364 59.7566C92.8264 59.7366 92.8264 59.7266 92.8164 59.7066L81.3981 39.9495C81.3781 39.9195 81.3481 39.8995 81.3281 39.8695C81.2939 39.8241 81.2572 39.7808 81.2181 39.7395C81.1772 39.7062 81.1337 39.6761 81.0881 39.6496C81.0435 39.6223 80.9967 39.5988 80.9481 39.5796C80.8936 39.5599 80.8361 39.5498 80.7781 39.5496C80.7481 39.5496 80.7082 39.5296 80.6782 39.5296H59.3213L80.6682 2.545ZM57.8615 41.2193H80.1882L90.6267 59.2867H46.9431L36.5046 41.2193H57.8615ZM35.0449 42.0592L45.4733 60.1265L12.2282 117.708L1.79974 99.6408L35.0449 42.0592ZM13.698 118.548L46.9431 60.9664H90.6267L80.1882 79.0438H57.8615C57.8415 79.0438 57.8315 79.0538 57.8115 79.0538C57.7715 79.0538 57.7415 79.0638 57.7015 79.0638L57.5816 79.0938C57.5516 79.1038 57.5116 79.1238 57.4816 79.1338C57.4516 79.1438 57.4516 79.1438 57.4316 79.1538C57.4202 79.1661 57.4066 79.1763 57.3916 79.1838C57.3592 79.2039 57.3291 79.2274 57.3016 79.2537C57.2725 79.2778 57.2457 79.3046 57.2216 79.3337C57.2016 79.3637 57.1716 79.3937 57.1516 79.4237C57.1416 79.4337 57.1216 79.4437 57.1216 79.4637L45.7133 99.2208C45.6988 99.2526 45.6887 99.2863 45.6833 99.3208C45.6621 99.3726 45.6454 99.4261 45.6333 99.4808C45.6247 99.5336 45.6213 99.5872 45.6233 99.6408C45.6217 99.6943 45.625 99.7478 45.6333 99.8007C45.6439 99.8558 45.6607 99.9094 45.6833 99.9607C45.6933 99.9907 45.7033 100.031 45.7133 100.061L56.3917 118.548H13.698ZM137.22 138.305H70.7296L81.1581 120.238H147.648L137.22 138.305ZM69.2698 137.465L47.433 99.6408L57.8715 81.5634L79.7083 119.388L69.2698 137.465ZM147.648 118.548H81.1581L59.3213 80.7235H80.1882L91.3566 100.061L91.3866 100.091C91.4065 100.126 91.4299 100.16 91.4566 100.191C91.4952 100.233 91.5388 100.27 91.5866 100.301C91.6166 100.321 91.6366 100.351 91.6665 100.371C91.6783 100.379 91.6924 100.382 91.7065 100.381C91.8197 100.444 91.9468 100.478 92.0765 100.481H114.893C115.026 100.478 115.156 100.444 115.273 100.381L115.363 100.321C115.448 100.264 115.522 100.193 115.583 100.111C115.593 100.091 115.623 100.081 115.633 100.061L126.311 81.5634L147.648 118.548Z" fill="white"/>
</g>
<defs>
<clipPath id="clip0_1_67">
<rect width="149.938" height="140" fill="white"/>
</clipPath>
</defs>
</svg>
