<svg width="140" height="122" viewBox="0 0 140 122" fill="none" xmlns="http://www.w3.org/2000/svg">
<g clip-path="url(#clip0_1_76)">
<path d="M0.0200282 108.189C0.032167 108.241 0.0488838 108.291 0.0700013 108.339C0.0754434 108.37 0.0855517 108.401 0.0999913 108.429L7.37785 121.047L7.40784 121.077C7.42798 121.109 7.45144 121.139 7.47782 121.167C7.51781 121.207 7.55779 121.237 7.59778 121.277C7.62777 121.297 7.63778 121.327 7.66777 121.337C7.6795 121.345 7.69364 121.348 7.70774 121.347C7.81628 121.402 7.93579 121.433 8.05764 121.437H131.891C132.013 121.433 132.132 121.402 132.241 121.347C132.271 121.327 132.291 121.307 132.321 121.287C132.402 121.236 132.47 121.167 132.521 121.087C132.531 121.067 132.551 121.057 132.571 121.037L139.859 108.419C139.869 108.409 139.869 108.389 139.879 108.379C139.898 108.349 139.912 108.315 139.919 108.279C139.929 108.249 139.939 108.209 139.949 108.179C139.957 108.147 139.96 108.113 139.959 108.079C139.959 108.059 139.969 108.049 139.969 108.029C139.969 108.009 139.959 107.999 139.959 107.979C139.959 107.959 139.949 107.909 139.949 107.879C139.949 107.849 139.929 107.809 139.919 107.779C139.908 107.745 139.895 107.712 139.879 107.679C139.869 107.669 139.869 107.649 139.859 107.639L77.9471 0.390654C77.9296 0.365266 77.9095 0.341806 77.8871 0.320668C77.8558 0.276074 77.8188 0.235744 77.7771 0.200692C77.6987 0.142965 77.615 0.0927528 77.5272 0.0507217C77.4751 0.0350103 77.4215 0.0249546 77.3672 0.0207279C77.3372 0.0207279 77.3072 0.000732422 77.2673 0.000732422H62.7015C62.6815 0.000732422 62.6716 0.0107297 62.6516 0.0107297C62.6316 0.0107297 62.5816 0.0207279 62.5516 0.0207279L62.4416 0.0507217C62.4073 0.061427 62.3739 0.0747984 62.3417 0.0907137C62.3299 0.0986659 62.3158 0.102208 62.3017 0.100712C62.2903 0.113062 62.2767 0.123226 62.2617 0.130706C62.2333 0.14825 62.2065 0.168328 62.1817 0.190694C62.1526 0.214777 62.1258 0.241557 62.1017 0.270678C62.0817 0.300672 62.0617 0.320668 62.0417 0.350662C62.0294 0.362055 62.0192 0.375608 62.0117 0.390654L0.0899844 107.649C0.0755449 107.678 0.0654365 107.708 0.0599945 107.739C0.0388618 107.788 0.0221446 107.838 0.0100214 107.889C0.00171515 107.939 -0.00164352 107.989 1.46138e-05 108.039C0.0100117 108.089 0.0100312 108.139 0.0200282 108.189ZM76.8174 1.57042L137.829 107.249H31.2808L37.6589 96.2116H117.345C117.469 96.2106 117.59 96.176 117.695 96.1116C117.705 96.1016 117.725 96.1116 117.735 96.1016C117.761 96.0841 117.784 96.064 117.805 96.0416C117.848 96.0077 117.888 95.971 117.925 95.9316C117.955 95.894 117.982 95.8539 118.005 95.8117C118.035 95.7736 118.056 95.7291 118.065 95.6817C118.086 95.6309 118.096 95.5765 118.095 95.5217C118.095 95.4917 118.115 95.4617 118.115 95.4217C118.115 95.4017 118.105 95.3917 118.105 95.3717C118.1 95.3209 118.09 95.2707 118.075 95.2218C118.063 95.1704 118.046 95.1202 118.025 95.0718C118.015 95.0618 118.015 95.0418 118.005 95.0318L64.0511 1.57042H76.8174ZM131.451 119.867H9.42723L62.7015 27.5852L69.0797 38.623L29.2314 107.639C29.2234 107.651 29.2199 107.665 29.2214 107.679C29.2003 107.728 29.1835 107.778 29.1714 107.829C29.1566 107.878 29.1466 107.928 29.1414 107.979C29.1414 107.999 29.1314 108.009 29.1314 108.029C29.1314 108.049 29.1514 108.089 29.1514 108.129C29.1566 108.183 29.1666 108.237 29.1814 108.289C29.2014 108.339 29.2214 108.379 29.2414 108.419C29.2657 108.461 29.2924 108.501 29.3214 108.539C29.3614 108.579 29.4014 108.609 29.4414 108.649C29.4713 108.669 29.4813 108.699 29.5113 108.709C29.5213 108.719 29.5413 108.709 29.5513 108.719C29.6592 108.778 29.7786 108.812 29.9012 108.819H137.809L131.451 119.867ZM101.41 94.6419H38.5587L69.9894 40.2027L101.41 94.6419ZM62.7015 2.36026L115.976 94.6419H103.23L63.3913 25.6256C63.379 25.6142 63.3688 25.6007 63.3614 25.5856C63.3314 25.5456 63.2914 25.5057 63.2614 25.4657C63.2261 25.4271 63.1857 25.3935 63.1414 25.3657C63.13 25.3533 63.1165 25.3432 63.1014 25.3357C63.0731 25.3212 63.0428 25.3111 63.0114 25.3057C62.9631 25.2846 62.9129 25.2678 62.8615 25.2557C62.762 25.2424 62.6611 25.2424 62.5616 25.2557C62.5102 25.2678 62.46 25.2846 62.4116 25.3057C62.3803 25.3111 62.35 25.3212 62.3216 25.3357C62.3103 25.348 62.2967 25.3582 62.2817 25.3657C62.2417 25.3957 62.2017 25.4357 62.1617 25.4657C62.1204 25.4983 62.0864 25.5391 62.0617 25.5856C62.0494 25.597 62.0392 25.6106 62.0318 25.6256L8.07765 119.087L1.69953 108.049L62.7015 2.36026Z" fill="white"/>
</g>
<defs>
<clipPath id="clip0_1_76">
<rect width="139.969" height="121.438" fill="white"/>
</clipPath>
</defs>
</svg>
