<svg width="140" height="126" viewBox="0 0 140 126" fill="none" xmlns="http://www.w3.org/2000/svg">
<g clip-path="url(#clip0_1_95)">
<path d="M114.515 0.00634766L88.3405 15.003L88.3904 54.0444L51.9585 14.4931L25.2544 0.0163457L0 14.2932V95.4852L25.5244 109.732L51.7185 95.2353V88.5767L87.2907 125.868L139.969 95.4552V14.2932L114.515 0.00634766ZM90.7899 17.8024L115.454 31.9493V83.4179L90.8299 56.6938L90.7899 17.8024ZM2.44947 17.1026L24.8045 30.0097L86.4209 96.215L86.4409 121.409L24.3846 56.3439V106.283L2.44947 94.0555V17.1026ZM49.2691 86.2272V93.8056L26.7141 106.283V62.4025L49.409 86.2272H49.2691ZM137.639 94.0655L88.8703 122.209L88.8504 95.2653L26.3342 28.1001L3.67918 15.023L25.2944 2.79573L50.4688 16.4427L117.904 89.6365V30.5396L92.0196 15.7029L114.585 2.78573L137.639 15.7029V94.0655Z" fill="white"/>
</g>
<defs>
<clipPath id="clip0_1_95">
<rect width="139.969" height="125.875" fill="white"/>
</clipPath>
</defs>
</svg>
