<svg width="139" height="142" viewBox="0 0 139 142" fill="none" xmlns="http://www.w3.org/2000/svg">
<g clip-path="url(#clip0_1_104)">
<path fill-rule="evenodd" clip-rule="evenodd" d="M137.733 49.8211C133.137 35.3036 123.935 22.6795 111.521 13.8611C99.1066 5.04265 84.1566 0.510423 68.9354 0.950961C53.7142 1.3915 39.0512 6.78079 27.1677 16.3024C15.2842 25.8241 6.82783 38.9593 3.07932 53.7183C-0.669185 68.4773 0.494534 84.0558 6.39422 98.0941C12.2939 112.132 22.6081 123.865 35.7743 131.516C48.9406 139.166 64.2415 142.317 79.3592 140.491C94.4769 138.666 108.588 131.962 119.554 121.397H119.584L120.154 120.828C122.904 118.065 124.447 114.323 124.442 110.425C124.438 106.526 122.887 102.789 120.131 100.032C117.374 97.2751 113.636 95.7244 109.738 95.7201C105.839 95.7157 102.098 97.258 99.335 100.009V99.9985C93.6997 105.514 86.5787 109.267 78.8437 110.798C71.1087 112.329 63.0951 111.572 55.7837 108.619C48.4723 105.667 42.1801 100.647 37.6774 94.1734C33.1748 87.7004 30.6567 80.055 30.4317 72.1731C30.2067 64.2912 32.2843 56.5147 36.4103 49.7952C40.5363 43.0758 46.5318 37.7049 53.6628 34.3399C60.7939 30.9749 68.7512 29.7618 76.561 30.8491C84.3708 31.9363 91.6943 35.2768 97.6351 40.4615L99.605 42.4414C100.526 43.3744 101.04 44.6337 101.035 45.9444C101.031 47.2551 100.508 48.5109 99.5817 49.4378C98.6548 50.3646 97.399 50.8872 96.0883 50.8916C94.7776 50.896 93.5183 50.3817 92.5853 49.4611L89.8555 46.7212L89.7555 46.8212C89.7121 46.6993 89.64 46.5896 89.5454 46.5012C84.9103 42.9912 79.3748 40.8676 73.5814 40.3769C67.7879 39.8863 61.9742 41.0487 56.8148 43.7293C51.6554 46.4099 47.3619 50.4987 44.4328 55.5211C41.5037 60.5436 40.059 66.2937 40.2664 72.1042C40.4738 77.9147 42.3248 83.5473 45.6045 88.3481C48.8842 93.149 53.4581 96.9213 58.7955 99.2272C64.1329 101.533 70.0148 102.278 75.7585 101.376C81.5023 100.473 86.8723 97.9604 91.2454 94.1288C92.0687 93.209 92.5206 92.0158 92.5132 90.7813C92.5058 89.5468 92.0397 88.3591 91.2054 87.4492C89.2355 85.3193 85.8656 85.8793 84.1957 87.2492C81.151 89.7254 77.4713 91.2951 73.5767 91.7792C69.6822 92.2632 65.7301 91.6419 62.1719 89.9863C58.6138 88.3307 55.593 85.7076 53.455 82.4167C51.3169 79.1258 50.1476 75.2998 50.0809 71.3759C50.0141 67.452 51.0524 63.5885 53.0773 60.2267C55.1021 56.8649 58.0318 54.1405 61.5316 52.3648C65.0313 50.5891 68.96 49.8337 72.8688 50.1849C76.7775 50.5361 80.5086 51.9797 83.6358 54.3508L83.6657 54.3308L85.4356 56.1008C88.1985 58.8513 91.9397 60.3936 95.8383 60.3893C99.7369 60.3849 103.475 58.8342 106.231 56.0775C108.988 53.3208 110.539 49.5831 110.543 45.6845C110.548 41.7858 109.005 38.0447 106.255 35.2818L106.035 35.0618C106.001 34.9045 105.925 34.7593 105.815 34.6418C98.6517 27.7874 89.6251 23.1994 79.866 21.4527C70.1068 19.7061 60.0492 20.8784 50.9535 24.823C41.8578 28.7675 34.1284 35.3086 28.734 43.6269C23.3397 51.9451 20.5203 61.6703 20.6291 71.5839C20.7379 81.4975 23.7699 91.1585 29.3455 99.3564C34.921 107.554 42.792 113.924 51.9721 117.668C61.1522 121.412 71.233 122.364 80.9515 120.403C90.67 118.443 99.5938 113.658 106.605 106.648C106.619 106.614 106.636 106.581 106.655 106.548C107.557 105.704 108.743 105.228 109.979 105.214C111.215 105.201 112.411 105.65 113.333 106.473C114.254 107.297 114.834 108.436 114.958 109.665C115.082 110.895 114.742 112.127 114.004 113.118C104.873 122.445 92.9559 128.549 80.0512 130.509C67.1464 132.469 53.9543 130.179 42.4653 123.985C30.9762 117.79 21.8137 108.026 16.3601 96.1673C10.9066 84.3084 9.45801 70.9976 12.2329 58.2432C15.0078 45.4888 21.8556 33.983 31.7432 25.4618C41.6307 16.9406 54.0214 11.8663 67.0457 11.0047C80.07 10.1431 93.0211 13.5409 103.945 20.6854C114.869 27.8298 123.173 38.3334 127.604 50.611C128.334 52.6409 130.043 55.6008 133.533 55.3808C134.208 55.38 134.874 55.2229 135.478 54.9217C136.082 54.6206 136.608 54.1835 137.015 53.6449C137.422 53.1063 137.699 52.4807 137.823 51.8173C137.948 51.1539 137.917 50.4706 137.733 49.8211Z" stroke="white" stroke-width="1.9999" stroke-miterlimit="10" stroke-linecap="round" stroke-linejoin="round"/>
</g>
<defs>
<clipPath id="clip0_1_104">
<rect width="138.922" height="142" fill="white"/>
</clipPath>
</defs>
</svg>
