<svg width="140" height="122" viewBox="0 0 140 122" fill="none" xmlns="http://www.w3.org/2000/svg">
<g clip-path="url(#clip0_1_113)">
<path d="M116.539 101.368C116.549 101.358 116.549 101.338 116.559 101.328C116.578 101.298 116.592 101.264 116.599 101.228C116.609 101.198 116.619 101.158 116.629 101.128C116.637 101.096 116.641 101.062 116.639 101.028C116.639 101.009 116.649 100.999 116.649 100.979C116.649 100.959 116.639 100.949 116.639 100.929C116.639 100.909 116.629 100.859 116.629 100.829C116.629 100.799 116.609 100.759 116.599 100.729C116.588 100.694 116.575 100.661 116.559 100.629C116.549 100.619 116.549 100.599 116.539 100.589L105.323 81.1636H127.745C127.867 81.1598 127.986 81.1291 128.095 81.0736C128.125 81.0536 128.145 81.0336 128.175 81.0136C128.256 80.9628 128.324 80.8945 128.375 80.8137C128.385 80.7937 128.405 80.7837 128.425 80.7637L139.781 61.0987C139.791 61.0887 139.791 61.0687 139.801 61.0587C139.82 61.0281 139.833 60.9942 139.841 60.9588C139.851 60.9288 139.861 60.8888 139.871 60.8588C139.879 60.8261 139.882 60.7925 139.881 60.7588C139.881 60.7388 139.891 60.7288 139.891 60.7088C139.891 60.6888 139.881 60.6788 139.881 60.6588C139.881 60.6388 139.871 60.5889 139.871 60.5589C139.871 60.5289 139.851 60.4889 139.841 60.4589C139.83 60.4246 139.817 60.3912 139.801 60.3589C139.791 60.3489 139.791 60.3289 139.781 60.3189L128.425 40.654C128.407 40.6286 128.387 40.6051 128.365 40.584C128.334 40.5392 128.297 40.4988 128.255 40.464C128.213 40.4317 128.17 40.4017 128.125 40.374C128.084 40.3481 128.041 40.3279 127.995 40.3141C127.944 40.2945 127.89 40.2843 127.835 40.2841C127.805 40.2841 127.775 40.2641 127.745 40.2641H105.323L116.539 20.8391C116.549 20.8291 116.549 20.8091 116.559 20.7991C116.578 20.7684 116.592 20.7346 116.599 20.6991C116.609 20.6691 116.619 20.6291 116.629 20.5991C116.637 20.5665 116.641 20.5328 116.639 20.4991C116.639 20.4791 116.649 20.4691 116.649 20.4492C116.649 20.4292 116.639 20.4192 116.639 20.3992C116.639 20.3792 116.629 20.3292 116.629 20.2992C116.629 20.2692 116.609 20.2292 116.599 20.1992C116.588 20.1649 116.575 20.1315 116.559 20.0992C116.549 20.0892 116.549 20.0693 116.539 20.0593L105.193 0.394295C105.176 0.368909 105.155 0.34545 105.133 0.324313C105.103 0.281943 105.069 0.241846 105.033 0.204343C104.991 0.172028 104.948 0.141993 104.903 0.114367C104.863 0.088441 104.819 0.0682521 104.773 0.0543819C104.722 0.0348075 104.668 0.0246463 104.613 0.0243899C104.583 0.0243899 104.553 0.00439453 104.523 0.00439453H81.8212C81.8012 0.00439453 81.7912 0.0143922 81.7712 0.0143922C81.7512 0.0143922 81.7012 0.0243899 81.6712 0.0243899L81.5613 0.0543819C81.5296 0.0634418 81.4992 0.0769026 81.4712 0.0943716C81.4595 0.102323 81.4454 0.105865 81.4313 0.104369L81.4013 0.134361C81.3729 0.151872 81.3462 0.171951 81.3214 0.194346C81.2923 0.218428 81.2654 0.245206 81.2413 0.274326C81.2214 0.304318 81.2014 0.324313 81.1814 0.354305C81.1691 0.365698 81.1589 0.37925 81.1514 0.394295L69.9354 19.8193L58.7194 0.394295C58.7019 0.368909 58.6818 0.34545 58.6593 0.324313C58.6255 0.28188 58.5887 0.241797 58.5494 0.204343C58.5118 0.174269 58.4717 0.147509 58.4294 0.124364C58.3891 0.0984377 58.3454 0.0782498 58.2995 0.0643796C58.2487 0.04392 58.1943 0.0337268 58.1395 0.0343875C58.1095 0.0343875 58.0796 0.0143922 58.0496 0.0143922H35.3476C35.3276 0.0143922 35.3176 0.0243899 35.2976 0.0243899C35.2776 0.0243899 35.2276 0.0343875 35.1977 0.0343875L35.0877 0.0643796C35.056 0.0734394 35.0256 0.0869003 34.9977 0.104369C34.9859 0.112321 34.9718 0.115863 34.9578 0.114367C34.9464 0.126716 34.9328 0.13688 34.9177 0.144359C34.8893 0.16187 34.8626 0.181948 34.8378 0.204343C34.8087 0.228424 34.7818 0.255204 34.7578 0.284323C34.7378 0.314316 34.7178 0.334311 34.6978 0.364303C34.6855 0.375695 34.6753 0.389248 34.6678 0.404293L23.3218 20.0693C23.3074 20.0976 23.2973 20.1279 23.2918 20.1592C23.2707 20.2076 23.2539 20.2578 23.2418 20.3092C23.2285 20.4087 23.2285 20.5096 23.2418 20.6091C23.2539 20.6605 23.2707 20.7107 23.2918 20.7591C23.2973 20.7904 23.3074 20.8207 23.3218 20.849L34.5379 40.2741H12.1158C12.0958 40.2741 12.0858 40.2841 12.0658 40.2841C12.0458 40.2841 11.9959 40.2941 11.9659 40.2941L11.8559 40.3241C11.8242 40.3331 11.7938 40.3466 11.7659 40.3641C11.7559 40.374 11.736 40.374 11.726 40.384L11.6959 40.414C11.6675 40.4315 11.6408 40.4516 11.616 40.474C11.5869 40.4981 11.56 40.5249 11.536 40.554C11.516 40.584 11.496 40.604 11.4761 40.634C11.4637 40.6454 11.4535 40.6589 11.446 40.674L0.0900553 60.3389C0.0756165 60.3672 0.0654783 60.3976 0.0600366 60.4289C0.0389051 60.4773 0.0221278 60.5275 0.0100054 60.5789C-0.00333514 60.6784 -0.00333514 60.7793 0.0100054 60.8788C0.0221278 60.9302 0.0389051 60.9804 0.0600366 61.0288C0.0654783 61.0601 0.0756165 61.0904 0.0900553 61.1187L11.446 80.7837L11.4761 80.8137C11.4962 80.846 11.5196 80.8761 11.546 80.9037C11.586 80.9436 11.6259 80.9736 11.6659 81.0136C11.6959 81.0336 11.706 81.0636 11.736 81.0736C11.7477 81.0816 11.7618 81.0851 11.7759 81.0836C11.8844 81.1391 12.0039 81.1698 12.1257 81.1736H34.5479L23.3419 100.599C23.3274 100.627 23.3173 100.657 23.3118 100.689C23.2907 100.737 23.2739 100.787 23.2618 100.839C23.2485 100.938 23.2485 101.039 23.2618 101.138C23.2739 101.19 23.2907 101.24 23.3118 101.288C23.3173 101.32 23.3274 101.35 23.3419 101.378L34.6878 121.043L34.7178 121.073C34.738 121.106 34.7614 121.136 34.7878 121.163C34.8278 121.203 34.8677 121.233 34.9077 121.273C34.9377 121.293 34.9478 121.323 34.9778 121.333C34.9895 121.341 35.0036 121.345 35.0177 121.343C35.1262 121.399 35.2457 121.43 35.3675 121.433H58.0696C58.1914 121.43 58.3109 121.399 58.4194 121.343C58.4494 121.323 58.4694 121.303 58.4994 121.283C58.5802 121.233 58.6486 121.164 58.6994 121.083C58.7094 121.063 58.7293 121.053 58.7493 121.033L69.9654 101.608L81.1814 121.033L81.2114 121.063C81.2316 121.096 81.255 121.126 81.2814 121.153C81.3214 121.193 81.3613 121.223 81.4013 121.263C81.4313 121.283 81.4413 121.313 81.4712 121.323C81.483 121.331 81.4972 121.335 81.5113 121.333C81.6198 121.389 81.7393 121.42 81.8611 121.423H104.563C104.685 121.42 104.804 121.389 104.913 121.333C104.943 121.313 104.963 121.293 104.993 121.273C105.074 121.223 105.142 121.154 105.193 121.073C105.203 121.053 105.223 121.043 105.243 121.023L116.539 101.368ZM104.053 119.854H83.1607L93.607 101.758H114.5L104.053 119.854ZM57.5698 119.854H36.6771L59.0192 81.1636H79.9119L57.5698 119.854ZM13.4353 79.584L23.8816 61.4886H68.5559L58.1095 79.584H13.4353ZM12.0758 42.6135L22.5221 60.7088L12.0758 78.8042L1.62943 60.7088L12.0758 42.6135ZM24.8712 20.4392L35.3176 2.34379L57.6597 41.0339L47.2134 59.1292L24.8712 20.4392ZM81.8112 2.35379L92.2575 20.4492L69.9254 59.1392L59.479 41.0439L81.8112 2.35379ZM104.053 1.564L114.5 19.6594H93.607L83.1607 1.564H104.053ZM127.305 41.8337L137.751 59.929H93.0773L82.6309 41.8337H127.305ZM81.2614 42.6135L91.2478 59.919H71.2649L81.2614 42.6135ZM68.5559 59.919H48.5729L58.5594 42.6135L68.5559 59.919ZM69.9154 62.2784L79.9018 79.584H59.9189L69.9154 62.2784ZM71.2749 61.4986H92.1575L114.49 100.189H93.597L71.2749 61.4986ZM93.9768 61.4986H137.741L127.295 79.594H104.413L93.9768 61.4986ZM82.6309 40.2541L93.617 21.229H114.51L103.524 40.2541H82.6309ZM58.5594 39.4743L36.6771 1.564H57.5698L69.0157 21.3789L58.5594 39.4743ZM45.8439 59.919H23.8716L13.4253 41.8237H35.3975L45.8439 59.919ZM57.1999 81.1636L35.3176 119.074L24.8712 100.979L36.3073 81.1636H57.1999ZM81.2614 81.9434L92.2475 100.969L81.8012 119.064L70.8151 100.029L81.2614 81.9434Z" fill="white"/>
</g>
<defs>
<clipPath id="clip0_1_113">
<rect width="139.891" height="121.438" fill="white"/>
</clipPath>
</defs>
</svg>
