<svg viewBox="0 0 19 19" fill="none" xmlns="http://www.w3.org/2000/svg">
<path d="M9.22852 4.4707C11.8125 4.4707 13.9453 6.60352 13.9453 9.1875C13.9453 11.8125 11.8125 13.9043 9.22852 13.9043C6.60352 13.9043 4.51172 11.8125 4.51172 9.1875C4.51172 6.60352 6.60352 4.4707 9.22852 4.4707ZM9.22852 12.2637C10.9102 12.2637 12.2637 10.9102 12.2637 9.1875C12.2637 7.50586 10.9102 6.15234 9.22852 6.15234C7.50586 6.15234 6.15234 7.50586 6.15234 9.1875C6.15234 10.9102 7.54688 12.2637 9.22852 12.2637ZM15.2168 4.30664C15.2168 4.92188 14.7246 5.41406 14.1094 5.41406C13.4941 5.41406 13.002 4.92188 13.002 4.30664C13.002 3.69141 13.4941 3.19922 14.1094 3.19922C14.7246 3.19922 15.2168 3.69141 15.2168 4.30664ZM18.334 5.41406C18.416 6.93164 18.416 11.4844 18.334 13.002C18.252 14.4785 17.9238 15.75 16.8574 16.8574C15.791 17.9238 14.4785 18.252 13.002 18.334C11.4844 18.416 6.93164 18.416 5.41406 18.334C3.9375 18.252 2.66602 17.9238 1.55859 16.8574C0.492188 15.75 0.164062 14.4785 0.0820312 13.002C0 11.4844 0 6.93164 0.0820312 5.41406C0.164062 3.9375 0.492188 2.625 1.55859 1.55859C2.66602 0.492188 3.9375 0.164062 5.41406 0.0820312C6.93164 0 11.4844 0 13.002 0.0820312C14.4785 0.164062 15.791 0.492188 16.8574 1.55859C17.9238 2.625 18.252 3.9375 18.334 5.41406ZM16.3652 14.6016C16.8574 13.4121 16.7344 10.541 16.7344 9.1875C16.7344 7.875 16.8574 5.00391 16.3652 3.77344C16.0371 2.99414 15.4219 2.33789 14.6426 2.05078C13.4121 1.55859 10.541 1.68164 9.22852 1.68164C7.875 1.68164 5.00391 1.55859 3.81445 2.05078C2.99414 2.37891 2.37891 2.99414 2.05078 3.77344C1.55859 5.00391 1.68164 7.875 1.68164 9.1875C1.68164 10.541 1.55859 13.4121 2.05078 14.6016C2.37891 15.4219 2.99414 16.0371 3.81445 16.3652C5.00391 16.8574 7.875 16.7344 9.22852 16.7344C10.541 16.7344 13.4121 16.8574 14.6426 16.3652C15.4219 16.0371 16.0781 15.4219 16.3652 14.6016Z" fill="white"/>
</svg>
