<svg viewBox="0 0 19 21" fill="none" xmlns="http://www.w3.org/2000/svg">
<path d="M18.375 8.61328H18.334C16.4473 8.61328 14.7246 8.03906 13.3301 7.01367V14.3555C13.3301 18.0469 10.3359 21 6.64453 21C2.95312 21 0 18.0469 0 14.3555C0 10.6641 2.95312 7.66992 6.64453 7.66992C6.97266 7.66992 7.25977 7.71094 7.58789 7.75195V11.4434C7.25977 11.3203 6.97266 11.2793 6.64453 11.2793C4.96289 11.2793 3.56836 12.6738 3.56836 14.3555C3.56836 16.0371 4.96289 17.4316 6.64453 17.4316C8.32617 17.4316 9.7207 16.0371 9.7207 14.3555V0H13.3301C13.3301 0.0410156 13.3301 0.0410156 13.3301 0.0820312C13.3301 0.369141 13.3301 0.65625 13.4121 0.943359C13.6582 2.29688 14.4785 3.48633 15.627 4.22461C16.4062 4.75781 17.3496 5.04492 18.334 5.04492C18.334 5.04492 18.334 5.04492 18.375 5.04492V8.61328Z" fill="white"/>
</svg>
