<svg width="21" height="18" viewBox="0 0 21 18" fill="none" xmlns="http://www.w3.org/2000/svg">
<path d="M18.8262 4.22461C19.6465 3.60938 20.3848 2.87109 20.959 2.00977C20.2207 2.33789 19.3594 2.58398 18.498 2.66602C19.4004 2.13281 20.0566 1.3125 20.3848 0.287109C19.5645 0.779297 18.6211 1.14844 17.6777 1.35352C16.8574 0.492188 15.75 0 14.5195 0C12.1406 0 10.2129 1.92773 10.2129 4.30664C10.2129 4.63477 10.2539 4.96289 10.3359 5.29102C6.76758 5.08594 3.56836 3.36328 1.43555 0.779297C1.06641 1.39453 0.861328 2.13281 0.861328 2.95312C0.861328 4.42969 1.59961 5.74219 2.78906 6.52148C2.0918 6.48047 1.39453 6.31641 0.820312 5.98828V6.0293C0.820312 8.12109 2.29688 9.84375 4.26562 10.2539C3.9375 10.3359 3.52734 10.418 3.1582 10.418C2.87109 10.418 2.625 10.377 2.33789 10.3359C2.87109 12.0586 4.4707 13.2891 6.35742 13.3301C4.88086 14.4785 3.03516 15.1758 1.02539 15.1758C0.65625 15.1758 0.328125 15.1348 0 15.0938C1.88672 16.3242 4.14258 17.0215 6.60352 17.0215C14.5195 17.0215 18.8262 10.5 18.8262 4.79883C18.8262 4.59375 18.8262 4.42969 18.8262 4.22461Z" fill="white"/>
</svg>
