<svg width="23" height="16" viewBox="0 0 23 16" fill="none" xmlns="http://www.w3.org/2000/svg">
<path d="M21.9434 2.50195C22.4355 4.22461 22.4355 7.91602 22.4355 7.91602C22.4355 7.91602 22.4355 11.5664 21.9434 13.3301C21.6973 14.3145 20.918 15.0527 19.9746 15.2988C18.2109 15.75 11.2383 15.75 11.2383 15.75C11.2383 15.75 4.22461 15.75 2.46094 15.2988C1.51758 15.0527 0.738281 14.3145 0.492188 13.3301C0 11.5664 0 7.91602 0 7.91602C0 7.91602 0 4.22461 0.492188 2.50195C0.738281 1.51758 1.51758 0.738281 2.46094 0.492188C4.22461 0 11.2383 0 11.2383 0C11.2383 0 18.2109 0 19.9746 0.492188C20.918 0.738281 21.6973 1.51758 21.9434 2.50195ZM8.94141 11.2383L14.7656 7.91602L8.94141 4.59375V11.2383Z" fill="white"/>
</svg>
